HIERARCHY
ROOT Hips
{
	OFFSET 0.00000 0.00000 0.00000
	CHANNELS 6 Xposition Yposition Zposition Zrotation Yrotation Xrotation 
	JOINT LHipJoint
	{
		OFFSET 0 0 0
		CHANNELS 3 Zrotation Yrotation Xrotation
		JOINT LeftHip
		{
			OFFSET 1.53794 -1.55850 0.93568
			CHANNELS 3 Zrotation Yrotation Xrotation
			JOINT LeftKnee
			{
				OFFSET 2.28545 -6.27922 0.00000
				CHANNELS 3 Zrotation Yrotation Xrotation
				JOINT LeftAnkle
				{
					OFFSET 2.37329 -6.52057 0.00000
					CHANNELS 3 Zrotation Yrotation Xrotation
					JOINT LeftToe
					{
						OFFSET 0.14846 -0.40788 2.09160
						CHANNELS 3 Zrotation Yrotation Xrotation
						End Site
						{
							OFFSET 0.00000 -0.00000 1.07536
						}
					}
				}
			}
		}
	}
	JOINT RHipJoint
	{
		OFFSET 0 0 0
		CHANNELS 3 Zrotation Yrotation Xrotation
		JOINT RightHip
		{
			OFFSET -1.78290 -1.55850 0.93568
			CHANNELS 3 Zrotation Yrotation Xrotation
			JOINT RightKnee
			{
				OFFSET -2.24144 -6.15831 0.00000
				CHANNELS 3 Zrotation Yrotation Xrotation
				JOINT RightAnkle
				{
					OFFSET -2.35091 -6.45907 0.00000
					CHANNELS 3 Zrotation Yrotation Xrotation
					JOINT RightToe
					{
						OFFSET -0.14428 -0.39641 2.07944
						CHANNELS 3 Zrotation Yrotation Xrotation
						End Site
						{
							OFFSET -0.00000 -0.00000 1.06864
						}
					}
				}
			}
		}
	}
	JOINT lowerback
	{
		OFFSET 0 0 0
		CHANNELS 3 Zrotation Yrotation Xrotation
		JOINT Chest
		{
			OFFSET -0.08841 2.11430 -0.15818
			CHANNELS 3 Zrotation Yrotation Xrotation
			JOINT Chest2
			{
				OFFSET -0.00033 2.12605 -0.08097
				CHANNELS 3 Zrotation Yrotation Xrotation
				JOINT lowerneck
				{
					OFFSET 0 0 0
					CHANNELS 3 Zrotation Yrotation Xrotation
					JOINT Neck
					{
						OFFSET 0.04431 1.59447 0.43193
						CHANNELS 3 Zrotation Yrotation Xrotation
						JOINT Head
						{
							OFFSET 0.00455 1.62017 -0.58852
							CHANNELS 3 Zrotation Yrotation Xrotation
							End Site
							{
								OFFSET -0.00920 1.72955 -0.25850
							}
						}
					}
				}
				JOINT LeftCollar
				{
					OFFSET 0 0 0
					CHANNELS 3 Zrotation Yrotation Xrotation
					JOINT LeftShoulder
					{
						OFFSET 2.86490 1.49927 -0.33774
CHANNELS 3 Zrotation Xrotation Yrotation
						JOINT LeftElbow
						{
OFFSET 0 -4.874080 0.000000
CHANNELS 3 Zrotation Xrotation Yrotation
							JOINT LeftWrist
							{
OFFSET 0 -2.767290 0.000000
CHANNELS 3 Zrotation Xrotation Yrotation
								JOINT lhand
								{
									OFFSET 0 0 0
CHANNELS 3 Zrotation Xrotation Yrotation
									JOINT LFingers
									{
OFFSET 0 -0.989220 0.000000
CHANNELS 3 Zrotation Xrotation Yrotation
										End Site
										{
OFFSET 0 -0.797530 0.000000
										}
									}
								}
								JOINT LThumb
								{
OFFSET 0 0.000000 0.000000
CHANNELS 3 Zrotation Xrotation Yrotation
									End Site
									{
OFFSET 0 -0.809720 0.809720
									}
								}
							}
						}
					}
				}
				JOINT RightCollar
				{
					OFFSET 0 0 0
					CHANNELS 3 Zrotation Yrotation Xrotation
					JOINT RightShoulder
					{
						OFFSET -2.94414 1.45463 -0.25291
CHANNELS 3 Zrotation Xrotation Yrotation
						JOINT RightElbow
						{
OFFSET 0 -4.714040 0.000000
CHANNELS 3 Zrotation Xrotation Yrotation
							JOINT RightWrist
							{
OFFSET 0 -2.834680 0.000000
CHANNELS 3 Zrotation Xrotation Yrotation
								JOINT rhand
								{
									OFFSET 0 0 0
CHANNELS 3 Zrotation Xrotation Yrotation
									JOINT RFingers
									{
OFFSET 0 -0.868200 0.000000
CHANNELS 3 Zrotation Xrotation Yrotation
										End Site
										{
OFFSET 0 -0.699960 0.000000
										}
									}
								}
								JOINT RThumb
								{
OFFSET 0 0.000000 0.000000
CHANNELS 3 Zrotation Xrotation Yrotation
									End Site
									{
OFFSET 0 -0.710650 0.710650
									}
								}
							}
						}
					}
				}
			}
		}
	}
}
MOTION
Frames: 6
Frame Time: 0.008333333333333333
1.366400 16.070600 24.622800 174.129000 -1.149900 -172.524000 0.000000 0.000000 0.000000 -28.126900 1.572200 8.565000 6.074200 14.499800 45.278700 2.615100 13.536700 29.288300 0.015400 -0.800100 -2.198800 0.000000 0.000000 0.000000 11.273800 12.473700 -38.026900 -2.645200 -10.097200 29.292000 -0.498500 -17.659200 16.668700 -2.071400 9.013300 -25.836800 -7.639600 -7.822700 -4.877000 0.084100 -10.049400 -0.181900 3.360300 -5.148300 3.835600 7.507200 5.337100 -33.231800 -6.070300 8.103400 36.536100 -2.018800 3.642400 20.785400 -0.000000 -0.000000 0.000000 16.211700 11.351400 -61.732100 112.498400 -57.998200 79.353200 13.219200 22.031800 -0.326200 0.000000 0.000000 0.000000 -7.125000 0.000000 0.000000 -10.512400 30.224100 -3.849700 -0.000000 -0.000000 0.000000 -10.727300 51.494800 19.719300 -70.229600 -58.470300 -42.966300 -12.240900 4.924800 2.648800 0.000000 0.000000 0.000000 7.125000 0.000000 -0.000000 11.572500 32.537800 3.595300
1.378729 15.998381 24.415934 174.156800 -1.020934 -172.905943 0.000000 0.000000 0.000000 -27.930671 1.743470 7.743882 6.800073 15.140159 48.076434 2.480332 14.009838 28.587809 0.017938 -0.863254 -2.372548 0.000000 0.000000 0.000000 12.082589 11.511771 -37.648281 -2.875695 -10.484461 30.566675 -0.175480 -15.707543 12.463094 -1.712784 8.208439 -23.367525 -7.688310 -7.597281 -4.620941 0.031945 -9.766327 -0.152589 3.402483 -5.005555 3.687960 7.363488 5.209403 -32.996651 -5.936982 7.966940 36.537792 -1.963986 3.603964 20.688343 0.000000 0.000000 0.000000 16.138091 12.012246 -61.538832 111.470658 -58.181073 78.480230 13.329432 22.525123 -0.458913 0.000000 0.000000 0.000000 -7.125000 0.000000 0.000000 -10.440907 30.359956 -3.788359 0.000000 0.000000 0.000000 -10.521159 51.196921 19.872198 -69.793387 -58.398988 -42.594691 -12.421900 4.988618 2.467921 0.000000 0.000000 0.000000 7.125000 0.000000 0.000000 11.403889 32.361876 3.589921
1.390306 15.927373 24.210926 174.215067 -0.852944 -173.269731 0.000000 0.000000 0.000000 -27.710923 1.926385 6.887477 7.532374 15.751491 50.839131 2.352284 14.419517 27.915928 0.021395 -0.942225 -2.589868 0.000000 0.000000 0.000000 12.847701 10.725134 -37.259060 -3.141562 -10.912833 31.995169 0.084038 -14.221912 8.860660 -1.431881 7.561717 -21.392657 -7.703485 -7.372759 -4.356451 -0.003369 -9.486801 -0.126054 3.443727 -4.863477 3.530595 7.238369 5.095124 -32.825317 -5.823949 7.851932 36.581513 -1.916706 3.572435 20.640702 0.000000 0.000000 0.000000 15.978089 12.676933 -61.225134 110.388409 -58.366576 77.559785 13.331504 22.946931 -0.597386 0.000000 0.000000 0.000000 -7.125000 0.000000 0.000000 -10.454847 30.499756 -3.757570 0.000000 0.000000 0.000000 -10.383779 50.821725 20.113160 -69.341940 -58.323982 -42.210311 -12.558138 5.038038 2.356094 0.000000 0.000000 0.000000 7.125000 0.000000 0.000000 11.280290 32.253858 3.580098
1.400459 15.858659 24.009439 174.331100 -0.610966 -173.599097 0.000000 0.000000 0.000000 -27.446584 2.131377 5.964165 8.276861 16.307786 53.535396 2.236975 14.708875 27.298292 0.026592 -1.051188 -2.889803 0.000000 0.000000 0.000000 13.530002 10.270852 -36.849740 -3.474494 -11.419150 33.715304 0.223158 -13.619868 6.401840 -1.298322 7.214826 -20.355186 -7.655077 -7.149939 -4.075977 -0.006753 -9.214002 -0.104782 3.483190 -4.722666 3.354792 7.148504 5.006286 -32.774975 -5.749373 7.777598 36.704919 -1.883709 3.554003 20.686752 0.000000 0.000000 0.000000 15.654283 13.348899 -60.683101 109.202814 -58.557064 76.549328 13.128506 23.233147 -0.746779 0.000000 0.000000 0.000000 -7.125000 0.000000 0.000000 -10.630771 30.647033 -3.784705 0.000000 0.000000 0.000000 -10.376769 50.299937 20.521090 -68.861610 -58.241973 -41.801716 -12.609507 5.060157 2.375191 0.000000 0.000000 0.000000 7.125000 0.000000 0.000000 11.242036 32.274587 3.561847
1.410027 15.795706 23.809496 174.498052 -0.385307 -173.911351 0.000000 0.000000 0.000000 -27.132955 2.248473 5.046238 9.025647 16.808197 56.155076 2.117994 15.080704 26.669804 0.035504 -1.207980 -3.321415 0.000000 0.000000 0.000000 14.093062 10.147621 -36.461456 -3.809303 -11.892745 35.366407 0.327302 -13.296496 4.241100 -1.329287 7.297149 -20.600561 -7.493063 -6.870900 -3.831938 -0.047074 -8.864283 -0.019903 3.420024 -4.544375 3.234332 7.077503 4.913441 -32.887572 -5.649005 7.631937 36.786631 -1.859811 3.505353 20.740733 0.000000 0.000000 0.000000 15.425385 13.736600 -60.258305 107.778821 -58.764372 75.332443 13.040658 23.523870 -0.966623 0.000000 0.000000 0.000000 -7.125000 0.000000 0.000000 -10.725225 30.867224 -3.761840 0.000000 0.000000 0.000000 -10.040084 49.666839 20.639829 -68.420053 -58.164513 -41.426427 -12.695976 5.188828 2.460232 0.000000 0.000000 0.000000 7.125000 0.000000 0.000000 11.184624 32.362678 3.518971
1.419332 15.735532 23.610266 174.689334 -0.164278 -174.216546 0.000000 0.000000 0.000000 -26.795708 2.328027 4.129915 9.776861 17.281167 58.738355 1.999345 15.473602 26.044909 0.045930 -1.383088 -3.803461 0.000000 0.000000 0.000000 14.599416 10.181384 -36.088919 -4.146423 -12.351879 36.989806 0.414885 -13.105117 2.213342 -1.427149 7.553948 -21.367427 -7.281100 -6.567970 -3.599936 -0.101548 -8.480644 0.091062 3.314229 -4.348754 3.134541 7.018003 4.820457 -33.064035 -5.542639 7.457564 36.843177 -1.842460 3.444085 20.792656 0.000000 0.000000 0.000000 15.229755 14.005978 -59.875959 106.240717 -58.978783 74.016633 13.003122 23.815528 -1.213210 0.000000 0.000000 0.000000 -7.125000 0.000000 0.000000 -10.783639 31.115184 -3.717989 0.000000 0.000000 0.000000 -9.564849 48.983179 20.639483 -67.993805 -58.088599 -41.064331 -12.801132 5.363462 2.574044 0.000000 0.000000 0.000000 7.125000 0.000000 0.000000 11.116158 32.480274 3.464485
